<svg xmlns="http://www.w3.org/2000/svg" viewBox="0 0 80 80" width="80" height="80" style="fill: rgb(0, 0, 0);">
    <path d="M 21 12 C 12.294323 12 8.1542969 18.466797 8.1542969 18.466797 A 1.0001 1.0001 0 0 0 8 19 L 8 31 A 1.0001 1.0001 0 0 0 8.0800781 31.394531 C 8.0800782 31.394531 11.481481 39 21 39 C 22.856373 39 24.758696 38.544523 26.34375 37.730469 C 26.970997 39.974918 27 41.978516 27 41.978516 A 1.0001 1.0001 0 0 0 27 42 L 27 53 A 1.0001 1.0001 0 1 0 29 53 L 29 42.021484 C 29 42.021484 29.307156 34.829181 24.611328 31.208984 A 1.0001 1.0001 0 0 0 23.958984 30.992188 A 1.0001 1.0001 0 0 0 23.388672 32.791016 C 24.415756 33.582834 25.142014 34.67631 25.667969 35.830078 C 24.371601 36.539022 22.609743 37 21 37 C 12.833571 37 10.1903 31.194288 10 30.753906 L 10 19.330078 C 10.381148 18.754312 13.721744 14 21 14 C 24.27381 14 26.594966 15.068812 28.392578 16.837891 C 30.19019 18.606969 31.444377 21.133233 32.289062 24.029297 C 33.978434 29.821425 34 37 34 42 L 34 65 C 34 65.56503 33.56503 66 33 66 L 30 66 C 29.43497 66 29 65.56503 29 65 A 1.0001 1.0001 0 1 0 27 65 C 27 66.64497 28.35503 68 30 68 L 33 68 C 34.64497 68 36 66.64497 36 65 L 36 42 C 36 37 36.021566 29.678575 34.210938 23.470703 C 33.305622 20.366767 31.93481 17.518031 29.794922 15.412109 C 27.655034 13.306188 24.72619 12 21 12 z M 59 12 C 55.27381 12 52.344966 13.306188 50.205078 15.412109 C 48.06519 17.518031 46.694377 20.366767 45.789062 23.470703 C 43.978434 29.678575 44 37 44 42 L 44 65 C 44 66.64497 45.35503 68 47 68 L 50 68 C 51.64497 68 53 66.64497 53 65 A 1.0001 1.0001 0 1 0 51 65 C 51 65.56503 50.56503 66 50 66 L 47 66 C 46.43497 66 46 65.56503 46 65 L 46 42 C 46 37 46.021569 29.821425 47.710938 24.029297 C 48.555622 21.133233 49.80981 18.606969 51.607422 16.837891 C 53.405034 15.068812 55.72619 14 59 14 C 66.278256 14 69.618852 18.754312 70 19.330078 L 70 30.753906 C 69.8097 31.194288 67.166429 37 59 37 C 57.390257 37 55.628399 36.539022 54.332031 35.830078 C 54.857986 34.67631 55.584245 33.582834 56.611328 32.791016 A 1.0001 1.0001 0 0 0 56.009766 30.992188 A 1.0001 1.0001 0 0 0 55.388672 31.208984 C 50.692844 34.829181 51 42.021484 51 42.021484 L 51 53 A 1.0001 1.0001 0 1 0 53 53 L 53 42 A 1.0001 1.0001 0 0 0 53 41.978516 C 53 41.978516 53.029002 39.974918 53.65625 37.730469 C 55.241304 38.544523 57.143627 39 59 39 C 68.518519 39 71.919922 31.394531 71.919922 31.394531 A 1.0001 1.0001 0 0 0 72 31 L 72 19 A 1.0001 1.0001 0 0 0 71.845703 18.466797 C 71.845703 18.466797 67.705677 12 59 12 z M 24.964844 15.994141 A 1.0001 1.0001 0 0 0 24.552734 17.894531 C 24.552734 17.894531 26.284354 18.805037 27.105469 20.447266 A 1.0001163 1.0001163 0 1 0 28.894531 19.552734 C 27.715646 17.194963 25.447266 16.105469 25.447266 16.105469 A 1.0001 1.0001 0 0 0 24.964844 15.994141 z M 55.003906 15.994141 A 1.0001 1.0001 0 0 0 54.552734 16.105469 C 54.552734 16.105469 52.284354 17.194963 51.105469 19.552734 A 1.0001163 1.0001163 0 1 0 52.894531 20.447266 C 53.715646 18.805037 55.447266 17.894531 55.447266 17.894531 A 1.0001 1.0001 0 0 0 55.003906 15.994141 z M 14.5 24 A 1.5 1.5 0 0 0 13 25.5 A 1.5 1.5 0 0 0 14.5 27 A 1.5 1.5 0 0 0 16 25.5 A 1.5 1.5 0 0 0 14.5 24 z M 65.5 24 A 1.5 1.5 0 0 0 64 25.5 A 1.5 1.5 0 0 0 65.5 27 A 1.5 1.5 0 0 0 67 25.5 A 1.5 1.5 0 0 0 65.5 24 z M 32 31 A 1 1 0 0 0 31 32 A 1 1 0 0 0 32 33 A 1 1 0 0 0 33 32 A 1 1 0 0 0 32 31 z M 48 31 A 1 1 0 0 0 47 32 A 1 1 0 0 0 48 33 A 1 1 0 0 0 49 32 A 1 1 0 0 0 48 31 z M 28 56 A 1 1 0 0 0 27 57 A 1 1 0 0 0 28 58 A 1 1 0 0 0 29 57 A 1 1 0 0 0 28 56 z M 52 56 A 1 1 0 0 0 51 57 A 1 1 0 0 0 52 58 A 1 1 0 0 0 53 57 A 1 1 0 0 0 52 56 z M 28 60 A 1 1 0 0 0 27 61 A 1 1 0 0 0 28 62 A 1 1 0 0 0 29 61 A 1 1 0 0 0 28 60 z M 52 60 A 1 1 0 0 0 51 61 A 1 1 0 0 0 52 62 A 1 1 0 0 0 53 61 A 1 1 0 0 0 52 60 z"/>
</svg>